<svg version="1.1" viewBox="0.0 0.0 720.0 540.0" fill="none" stroke="none" stroke-linecap="square" stroke-miterlimit="10" xmlns:xlink="http://www.w3.org/1999/xlink" xmlns="http://www.w3.org/2000/svg"><clipPath id="p.0"><path d="m0 0l720.0 0l0 540.0l-720.0 0l0 -540.0z" clip-rule="nonzero"/></clipPath><g clip-path="url(#p.0)"><path fill="#000000" fill-opacity="0.0" d="m0 0l720.0 0l0 540.0l-720.0 0z" fill-rule="evenodd"/><path fill="#ffd966" d="m183.79527 84.67191l-10.835251 3.8532715l0 -7.706543zm-7.866165 -18.98671l-4.935608 10.387367l-5.4492645 -5.449272zm-18.984222 -7.863682l3.8532715 10.835247l-7.706543 0zm-18.98671 7.863682l10.38736 4.938095l-5.44928 5.449272zm-7.863693 18.98671l10.835251 -3.8532715l0 7.706543zm7.863693 18.984222l4.93808 -10.384872l5.44928 5.449272zm18.98671 7.866173l-3.8532715 -10.835251l7.706543 0zm18.984222 -7.866173l-10.384872 -4.9356003l5.4492645 -5.449272zm-32.409424 -18.984222l0 0c0 -7.414528 6.010666 -13.425194 13.425201 -13.425194c7.4145355 0 13.425186 6.010666 13.425186 13.425194c0 7.4145355 -6.0106506 13.425201 -13.425186 13.425201c-7.4145355 0 -13.425201 -6.010666 -13.425201 -13.425201z" fill-rule="evenodd"/><path stroke="#000000" stroke-width="1.0" stroke-linejoin="round" stroke-linecap="butt" d="m183.79527 84.67191l-10.835251 3.8532715l0 -7.706543zm-7.866165 -18.98671l-4.935608 10.387367l-5.4492645 -5.449272zm-18.984222 -7.863682l3.8532715 10.835247l-7.706543 0zm-18.98671 7.863682l10.38736 4.938095l-5.44928 5.449272zm-7.863693 18.98671l10.835251 -3.8532715l0 7.706543zm7.863693 18.984222l4.93808 -10.384872l5.44928 5.449272zm18.98671 7.866173l-3.8532715 -10.835251l7.706543 0zm18.984222 -7.866173l-10.384872 -4.9356003l5.4492645 -5.449272zm-32.409424 -18.984222l0 0c0 -7.414528 6.010666 -13.425194 13.425201 -13.425194c7.4145355 0 13.425186 6.010666 13.425186 13.425194c0 7.4145355 -6.0106506 13.425201 -13.425186 13.425201c-7.4145355 0 -13.425201 -6.010666 -13.425201 -13.425201z" fill-rule="evenodd"/></g></svg>